<?xml version="1.0" encoding="UTF-8"?>
<svg width="538px" height="190px" viewBox="0 0 538 190" version="1.1" xmlns="http://www.w3.org/2000/svg" xmlns:xlink="http://www.w3.org/1999/xlink">
    <!-- Generator: Sketch 49.3 (51167) - http://www.bohemiancoding.com/sketch -->
    <title>Combined Shape</title>
    <desc>Created with Sketch.</desc>
    <defs></defs>
    <g id="Page-1" stroke="none" stroke-width="1" fill="none" fill-rule="evenodd">
        <g id="logo-hooli-bottom" fill="#FFFFFF" fill-rule="nonzero">
            <path d="M414.51,187.73 L468.65,187.73 L468.65,0.23 L414.53,25.73 L414.53,187.73 L414.51,187.73 Z M483.51,83.61 L483.51,187.73 L537.65,187.73 L537.65,83.61 L483.51,83.61 Z M249,75.23 C232,58.23 201.83,59.23 201.83,59.23 C201.83,59.23 171.67,58.23 154.67,75.23 C152.896799,76.9917162 151.227326,78.854848 149.67,80.81 C113.96,53.14 81.87,33.19 54.17,19.62 L54.17,0.23 C40.1166667,6.84333333 33.09,10.15 33.09,10.15 C33.09,10.15 33.09,10.15 27.24,12.91 L2.84217094e-14,25.73 L2.84217094e-14,89.06 C12.29,102.81 28.54,118.49 50,136.23 C51.393333,137.376667 52.783333,138.506667 54.17,139.62 L54.17,111.73 C54.17,105.23 55.73,94.73 64.23,94.73 C72.73,94.73 74.17,101.23 74.17,108.73 L74.17,154.33 C90.970078,165.749067 109.104978,175.068391 128.17,182.08 L128.17,94.23 C128.17,76.73 115.67,59.23 90.17,59.23 C75.359415,59.1029415 61.618118,66.9278467 54.17,79.73 L54.17,24.87 C93.32,44.45 132.67,72.45 147.66,83.49 C138.08,97.15 139,109.79 139,124.4 C139,141.9 137.67,156.57 154.67,173.57 C171.67,190.57 201.84,189.57 201.84,189.57 C201.84,189.57 232.01,190.57 249.01,173.57 C266.01,156.57 264.62,141.9 264.62,124.4 C264.62,106.9 266,92.23 249,75.23 Z M211.83,142.56 C211.83,145.89 210.16,154.23 201.83,154.23 C193.5,154.23 191.83,145.9 191.83,142.56 L191.83,104.73 C191.83,96.56 198.66,94.56 201.83,94.56 C205,94.56 211.83,96.56 211.83,104.73 L211.83,142.56 Z M385.53,75.23 C368.53,58.23 338.36,59.23 338.36,59.23 C338.36,59.23 308.19,58.23 291.19,75.23 C274.19,92.23 275.5,106.9 275.5,124.4 C275.5,141.9 274.17,156.57 291.17,173.57 C308.17,190.57 338.34,189.57 338.34,189.57 C338.34,189.57 368.51,190.57 385.51,173.57 C402.51,156.57 401.18,141.9 401.18,124.4 C401.18,106.9 402.51,92.23 385.51,75.23 L385.53,75.23 Z M348.36,142.56 C348.36,145.89 346.69,154.23 338.36,154.23 C330.03,154.23 328.36,145.9 328.36,142.56 L328.36,104.73 C328.36,96.56 335.19,94.56 338.36,94.56 C341.53,94.56 348.36,96.56 348.36,104.73 L348.36,142.56 Z M510.59,74.23 C525.501688,74.23 537.59,62.1416882 537.59,47.23 C537.59,32.3183118 525.501688,20.23 510.59,20.23 C495.678312,20.23 483.59,32.3183118 483.59,47.23 C483.59,62.1416882 495.678312,74.23 510.59,74.23 Z M74.15,187.73 L110,187.73 C97.653573,183.441061 85.666115,178.181292 74.15,172 L74.15,187.73 Z M54.15,187.73 L54.15,160.23 C48.09,156.323333 42.033333,152.09 35.98,147.53 C22.16,137.08 10.26,127.26 4.97379915e-14,118 L4.97379915e-14,187.69 L54.15,187.73 Z" id="Combined-Shape"></path>
        </g>
    </g>
</svg>